<svg id="_11-game-s-svgrepo-com" data-name="11-game-s-svgrepo-com" xmlns="http://www.w3.org/2000/svg" width="28.499" height="28.596" viewBox="0 0 28.499 28.596">
  <path id="Path_10646" data-name="Path 10646" d="M29.256,193.27l0-.018,0-.019-1.475-6.274-.006-.023-.006-.023a7.947,7.947,0,0,0-7.666-5.881H10.14a7.946,7.946,0,0,0-7.665,5.881l-.007.023-.005.023L.988,193.233l0,.018,0,.018a5.149,5.149,0,0,0,3.453,5.965l.088.028a5.155,5.155,0,0,0,6.033-2.279l1.256-1.856.031-.046.028-.049a.249.249,0,0,1,.215-.125h6.068a.249.249,0,0,1,.215.125l.028.049.031.046,1.255,1.856a5.155,5.155,0,0,0,6.036,2.278l.086-.028A5.151,5.151,0,0,0,29.256,193.27Zm-3.935,4.484-.086.028A3.6,3.6,0,0,1,21,196.154l-1.284-1.9a1.806,1.806,0,0,0-1.564-.905H12.084a1.806,1.806,0,0,0-1.564.905l-1.283,1.9A3.6,3.6,0,0,1,5,197.782l-.086-.028A3.6,3.6,0,0,1,2.5,193.59l1.475-6.274a6.379,6.379,0,0,1,6.162-4.728H20.1a6.379,6.379,0,0,1,6.162,4.728l1.475,6.274A3.6,3.6,0,0,1,25.322,197.754Z" transform="translate(-0.868 -170.92)" fill="#9200ff"/>
  <path id="Path_10647" data-name="Path 10647" d="M89.978,262.862H88.111v2.144H85.967v1.866h2.144v2.145h1.867v-2.145h2.144v-1.866H89.978Z" transform="translate(-81.214 -248.181)" fill="#9200ff"/>
  <path id="Path_10648" data-name="Path 10648" d="M345.5,257.213a1.175,1.175,0,1,0-1.174-1.175A1.175,1.175,0,0,0,345.5,257.213Z" transform="translate(-325.139 -240.628)" fill="#9200ff"/>
  <path id="Path_10649" data-name="Path 10649" d="M303.416,296.935a1.175,1.175,0,1,0,1.175,1.174A1.175,1.175,0,0,0,303.416,296.935Z" transform="translate(-285.409 -280.351)" fill="#9200ff"/>
  <path id="Path_10650" data-name="Path 10650" d="M345.5,339a1.175,1.175,0,1,0,1.175,1.175A1.174,1.174,0,0,0,345.5,339Z" transform="translate(-325.139 -320.065)" fill="#9200ff"/>
  <path id="Path_10651" data-name="Path 10651" d="M387.562,296.935a1.175,1.175,0,1,0,1.175,1.174A1.174,1.174,0,0,0,387.562,296.935Z" transform="translate(-364.855 -280.351)" fill="#9200ff"/>
  <path id="Path_10652" data-name="Path 10652" d="M158.431,2.785a7.758,7.758,0,0,1,8.8,0,.708.708,0,0,0,.8-1.166,9.176,9.176,0,0,0-10.411,0,.708.708,0,0,0,.8,1.166Z" transform="translate(-148.583 0)" fill="#9200ff"/>
  <path id="Path_10653" data-name="Path 10653" d="M199.658,63a.607.607,0,0,0-.155-.844h0a5.766,5.766,0,0,0-6.545,0,.607.607,0,0,0,.688,1,4.553,4.553,0,0,1,5.169,0A.607.607,0,0,0,199.658,63Z" transform="translate(-181.98 -57.72)" fill="#9200ff"/>
  <path id="Path_10654" data-name="Path 10654" d="M228.28,122.685a.506.506,0,1,0,.573.834,1.356,1.356,0,0,1,1.536,0,.506.506,0,0,0,.574-.833,2.369,2.369,0,0,0-2.683,0Z" transform="translate(-215.372 -115.44)" fill="#9200ff"/>
</svg>
