<svg xmlns="http://www.w3.org/2000/svg" width="29.409" height="24.253" viewBox="0 0 29.409 24.253">
  <g id="code-interface-symbol-of-signs-svgrepo-com" transform="translate(0 -47.616)">
    <g id="Group_6510" data-name="Group 6510" transform="translate(0 47.616)">
      <path id="Path_10660" data-name="Path 10660" d="M4.654,131.639a1.656,1.656,0,1,0,2.792-1.783l-3.823-5.985,3.824-5.984A1.656,1.656,0,0,0,4.655,116.1L.261,122.979a1.656,1.656,0,0,0,0,1.784Z" transform="translate(0 -111.672)" fill="#ffd501"/>
      <path id="Path_10661" data-name="Path 10661" d="M401.639,132.136a1.656,1.656,0,0,0,2.288-.5l4.394-6.876a1.656,1.656,0,0,0,0-1.784l-4.393-6.876a1.656,1.656,0,0,0-2.792,1.784l3.824,5.984-3.824,5.985A1.656,1.656,0,0,0,401.639,132.136Z" transform="translate(-379.172 -111.665)" fill="#ffd501"/>
      <path id="Path_10662" data-name="Path 10662" d="M149.234,71.706a1.655,1.655,0,0,0,2.21-.777l10.042-20.94a1.656,1.656,0,0,0-2.987-1.433L148.456,69.5A1.656,1.656,0,0,0,149.234,71.706Z" transform="translate(-140.265 -47.616)" fill="#ffd501"/>
    </g>
  </g>
</svg>
