<svg xmlns="http://www.w3.org/2000/svg" width="28.172" height="26.335" viewBox="0 0 28.172 26.335">
  <g id="vector-graphic-design-svgrepo-com" transform="translate(0 -16.696)">
    <g id="Group_6495" data-name="Group 6495" transform="translate(0 28.945)">
      <g id="Group_6494" data-name="Group 6494">
        <rect id="Rectangle_163" data-name="Rectangle 163" width="3.675" height="3.675" fill="#01b5ff"/>
      </g>
    </g>
    <g id="Group_6497" data-name="Group 6497" transform="translate(24.498 28.945)">
      <g id="Group_6496" data-name="Group 6496">
        <rect id="Rectangle_164" data-name="Rectangle 164" width="3.675" height="3.675" fill="#01b5ff"/>
      </g>
    </g>
    <g id="Group_6499" data-name="Group 6499" transform="translate(12.249 16.696)">
      <g id="Group_6498" data-name="Group 6498">
        <path id="Path_10655" data-name="Path 10655" d="M222.609,16.7v3.675h3.675V16.7Z" transform="translate(-222.609 -16.696)" fill="#01b5ff"/>
      </g>
    </g>
    <g id="Group_6501" data-name="Group 6501" transform="translate(13.168 32.313)">
      <g id="Group_6500" data-name="Group 6500">
        <path id="Path_10656" data-name="Path 10656" d="M240.223,300.522a.919.919,0,1,0,.919.919A.92.92,0,0,0,240.223,300.522Z" transform="translate(-239.304 -300.522)" fill="#01b5ff"/>
      </g>
    </g>
    <g id="Group_6503" data-name="Group 6503" transform="translate(6.737 22.208)">
      <g id="Group_6502" data-name="Group 6502">
        <path id="Path_10657" data-name="Path 10657" d="M132.931,121.115c-.655-1.527-1.208-3.067-1.6-4.246H130.7V125.3a2.756,2.756,0,1,1-1.837,0v-8.426h-.625c-.394,1.175-.945,2.707-1.6,4.231-1.856,4.331-3.391,5.874-4.208,5.874v1.837c1.412,0,3.368,1.6,3.368,4.593h7.962c0-3,1.956-4.593,3.368-4.593v-1.837C136.316,126.974,134.784,125.435,132.931,121.115Z" transform="translate(-122.434 -116.869)" fill="#01b5ff"/>
      </g>
    </g>
    <g id="Group_6505" data-name="Group 6505" transform="translate(8.574 40.581)">
      <g id="Group_6504" data-name="Group 6504" transform="translate(0 0)">
        <rect id="Rectangle_165" data-name="Rectangle 165" width="11.024" height="2.45" fill="#01b5ff"/>
      </g>
    </g>
    <g id="Group_6507" data-name="Group 6507" transform="translate(0.306 17.308)">
      <g id="Group_6506" data-name="Group 6506" transform="translate(0 0)">
        <path id="Path_10658" data-name="Path 10658" d="M7.6,28.132a1.224,1.224,0,1,0-.808,2.144h0A1.215,1.215,0,0,0,7.6,29.97h5.028a13.239,13.239,0,0,0-2.592,2.019A13.064,13.064,0,0,0,6.7,37.625H8.627a11.458,11.458,0,0,1,7.043-7.042V28.132Z" transform="translate(-5.565 -27.826)" fill="#01b5ff"/>
      </g>
    </g>
    <g id="Group_6509" data-name="Group 6509" transform="translate(17.761 17.308)">
      <g id="Group_6508" data-name="Group 6508" transform="translate(0 0)">
        <path id="Path_10659" data-name="Path 10659" d="M331.663,30.276h0a1.225,1.225,0,1,0-.807-2.144h-8.073v2.451a11.457,11.457,0,0,1,7.043,7.042h1.931a13.064,13.064,0,0,0-3.338-5.636,13.238,13.238,0,0,0-2.592-2.019h5.029A1.219,1.219,0,0,0,331.663,30.276Z" transform="translate(-322.783 -27.826)" fill="#01b5ff"/>
      </g>
    </g>
  </g>
</svg>
