<svg xmlns="http://www.w3.org/2000/svg" width="27.332" height="27.332" viewBox="0 0 27.332 27.332">
  <path id="blockchain-svgrepo-com" d="M4.5,7.233A2.733,2.733,0,0,1,7.233,4.5H12.7a2.733,2.733,0,0,1,2.733,2.733V9.055H20.9V7.233A2.733,2.733,0,0,1,23.632,4.5H29.1a2.733,2.733,0,0,1,2.733,2.733V12.7A2.733,2.733,0,0,1,29.1,15.433H27.276V20.9H29.1a2.733,2.733,0,0,1,2.733,2.733V29.1A2.733,2.733,0,0,1,29.1,31.832H23.632A2.733,2.733,0,0,1,20.9,29.1V27.276H15.433V29.1A2.733,2.733,0,0,1,12.7,31.832H7.233A2.733,2.733,0,0,1,4.5,29.1V23.632A2.733,2.733,0,0,1,7.233,20.9H9.055V15.433H7.233A2.733,2.733,0,0,1,4.5,12.7Zm20.954,8.2H23.632A2.733,2.733,0,0,1,20.9,12.7V10.877H15.433V12.7A2.733,2.733,0,0,1,12.7,15.433H10.877V20.9H12.7a2.733,2.733,0,0,1,2.733,2.733v1.822H20.9V23.632A2.733,2.733,0,0,1,23.632,20.9h1.822ZM7.233,6.322a.911.911,0,0,0-.911.911V12.7a.911.911,0,0,0,.911.911H12.7a.911.911,0,0,0,.911-.911V7.233a.911.911,0,0,0-.911-.911Zm-.911,17.31a.911.911,0,0,1,.911-.911H12.7a.911.911,0,0,1,.911.911V29.1a.911.911,0,0,1-.911.911H7.233a.911.911,0,0,1-.911-.911Zm16.4,0a.911.911,0,0,1,.911-.911H29.1a.911.911,0,0,1,.911.911V29.1a.911.911,0,0,1-.911.911H23.632a.911.911,0,0,1-.911-.911Zm0-16.4a.911.911,0,0,1,.911-.911H29.1a.911.911,0,0,1,.911.911V12.7a.911.911,0,0,1-.911.911H23.632a.911.911,0,0,1-.911-.911Z" transform="translate(-4.5 -4.5)" fill="#01ff6f" fill-rule="evenodd"/>
</svg>
